<?xml version="1.0" encoding="UTF-8"?>
<svg width="250px" height="250px" viewBox="0 0 250 250" version="1.1" xmlns="http://www.w3.org/2000/svg" xmlns:xlink="http://www.w3.org/1999/xlink">
    <!-- Generator: Sketch 53.2 (72643) - https://sketchapp.com -->
    <title>icon-250x250</title>
    <desc>Created with Sketch.</desc>
    <defs>
        <linearGradient x1="9.48666%" y1="20%" x2="33.50654%" y2="20%" id="linearGradient-1">
            <stop stop-color="#C0469A" offset="0%"></stop>
            <stop stop-color="#A04E9E" offset="100%"></stop>
        </linearGradient>
        <path d="M115.721271,81.5073592 L115.721271,81.2584777 C132.987159,75.5342038 144.920934,65.081182 144.920934,44.9217826 C144.920934,26.0067906 136.5419,0.620880348 90.0763493,0.620880348 L0.953899256,0.620880348 L0.953899256,174.58903 L85.5059672,174.58903 C116.990821,174.58903 153.553878,167.620349 153.553878,125.808261 C153.426923,94.2003144 129.305462,84.2450554 115.721271,81.5073592 Z M42.8490681,34.5932015 L79.6660346,34.5932015 C98.2014729,34.5932015 102.264035,44.2995789 102.264035,51.5171417 C102.264035,58.2369414 98.4553831,69.4366077 81.4434054,69.4366077 L42.8490681,69.4366077 L42.8490681,34.5932015 Z M86.2676976,140.865591 L42.8490681,140.865591 L42.8490681,101.417877 L80.9355852,101.417877 C96.170192,101.417877 109.373518,104.653336 109.373518,121.328395 C109.373518,137.256809 93.6310909,140.865591 86.2676976,140.865591 Z" id="path-2"></path>
    </defs>
    <g id="icon-250x250" stroke="none" stroke-width="1" fill="none" fill-rule="evenodd">
        <g id="Group-28">
            <g id="b20-icon" transform="translate(0.193601, 0.193601)">
                <g id="Group" fill-rule="nonzero">
                    <circle id="Oval" fill="#CA3D9E" cx="123.781181" cy="123.781181" r="123.781181"></circle>
                    <circle id="Oval" fill="#FFFFFF" cx="123.781181" cy="123.781181" r="117.220778"></circle>
                </g>
                <g id="Group" transform="translate(52.286516, 30.500467)">
                    <g id="SVGID_2_-link" transform="translate(0.860018, 1.699352)">
                        <g id="Group-32" transform="translate(0.823472, 0.623527)">
                            <mask id="mask-3" fill="white">
                                <use xlink:href="#path-2"></use>
                            </mask>
                            <use id="Mask" fill="#CA3D9E" fill-rule="nonzero" xlink:href="#path-2"></use>
                            <g mask="url(#mask-3)" fill="#010101" fill-rule="nonzero" id="Rectangle">
                                <g transform="translate(-128.250903, -122.705428)">
                                    <polygon transform="translate(124.186688, 125.691989) rotate(-45.000000) translate(-124.186688, -125.691989) " points="-46.5270189 122.225028 294.865195 125.639442 294.900395 129.158949 -46.4918187 125.744535"></polygon>
                                    <polygon transform="translate(131.871544, 133.122706) rotate(-45.000000) translate(-131.871544, -133.122706) " points="-38.8421627 129.655745 302.550051 133.070159 302.585251 136.589667 -38.8069625 133.175252"></polygon>
                                    <polygon transform="translate(139.466758, 140.641291) rotate(-45.000000) translate(-139.466758, -140.641291) " points="-31.2469494 137.17433 310.145264 140.588744 310.180465 144.108251 -31.2117493 140.693837"></polygon>
                                    <polygon transform="translate(147.241384, 148.160000) rotate(-45.000000) translate(-147.241384, -148.160000) " points="-23.4723233 144.693039 317.919891 148.107453 317.955091 151.626961 -23.4371232 148.212547"></polygon>
                                    <polygon transform="translate(154.836470, 155.678585) rotate(-45.000000) translate(-154.836470, -155.678585) " points="-15.877237 152.211624 325.514977 155.626038 325.550177 159.145546 -15.8420369 155.731131"></polygon>
                                    <polygon transform="translate(162.611223, 163.197294) rotate(-45.000000) translate(-162.611223, -163.197294) " points="-8.10248394 159.730333 333.28973 163.144748 333.32493 166.664255 -8.0672838 163.249841"></polygon>
                                    <polygon transform="translate(170.206309, 170.716003) rotate(-45.000000) translate(-170.206309, -170.716003) " points="-0.507397657 167.249043 340.884816 170.663457 340.920016 174.182964 -0.47219751 170.76855"></polygon>
                                    <polygon transform="translate(177.801523, 178.234588) rotate(-45.000000) translate(-177.801523, -178.234588) " points="7.08781559 174.767628 348.480029 178.182042 348.51523 181.701549 7.12301573 178.287135"></polygon>
                                    <polygon transform="translate(185.576149, 185.753298) rotate(-45.000000) translate(-185.576149, -185.753298) " points="14.8624417 182.286337 356.254656 185.700751 356.289856 189.220258 14.8976419 185.805844"></polygon>
                                    <polygon transform="translate(193.171235, 193.271883) rotate(-45.000000) translate(-193.171235, -193.271883) " points="22.457528 189.804922 363.849742 193.219336 363.884942 196.738843 22.4927281 193.324429"></polygon>
                                    <polygon transform="translate(200.945988, 200.790592) rotate(-45.000000) translate(-200.945988, -200.790592) " points="30.2322811 197.323631 371.624495 200.738045 371.659695 204.257553 30.2674812 200.843138"></polygon>
                                    <polygon transform="translate(208.541074, 208.309301) rotate(-45.000000) translate(-208.541074, -208.309301) " points="37.8273674 204.84234 379.219581 208.256755 379.254781 211.776262 37.8625675 208.361848"></polygon>
                                    <polygon transform="translate(216.225931, 215.915878) rotate(-45.000000) translate(-216.225931, -215.915878) " points="45.5122236 212.448917 386.904437 215.863332 386.939638 219.382839 45.5474237 215.968425"></polygon>
                                    <polygon transform="translate(223.910914, 223.346595) rotate(-45.000000) translate(-223.910914, -223.346595) " points="53.1972067 219.879635 394.589421 223.294049 394.624621 226.813556 53.2324069 223.399142"></polygon>
                                    <polygon transform="translate(231.506000, 230.865180) rotate(-45.000000) translate(-231.506000, -230.865180) " points="60.792293 227.398219 402.184507 230.812634 402.219707 234.332141 60.8274932 230.917727"></polygon>
                                    <polygon transform="translate(239.280626, 238.383890) rotate(-45.000000) translate(-239.280626, -238.383890) " points="68.5669192 234.916929 409.959133 238.331343 409.994333 241.85085 68.6021193 238.436436"></polygon>
                                    <polygon transform="translate(246.875839, 245.902599) rotate(-45.000000) translate(-246.875839, -245.902599) " points="76.1621324 242.435638 417.554346 245.850052 417.589546 249.36956 76.1973326 245.955145"></polygon>
                                    <polygon transform="translate(254.650466, 253.421184) rotate(-45.000000) translate(-254.650466, -253.421184) " points="83.9367585 249.954223 425.328972 253.368637 425.364173 256.888144 83.9719587 253.47373"></polygon>
                                    <polygon transform="translate(262.245679, 260.939893) rotate(-45.000000) translate(-262.245679, -260.939893) " points="91.5319718 257.472932 432.924186 260.887346 432.959386 264.406854 91.5671719 260.99244"></polygon>
                                    <polygon transform="translate(269.930535, 268.546470) rotate(-45.000000) translate(-269.930535, -268.546470) " points="99.216828 265.079509 440.609042 268.493923 440.644242 272.013431 99.2520281 268.599016"></polygon>
                                </g>
                            </g>
                        </g>
                    </g>
                </g>
            </g>
        </g>
    </g>
</svg>