<?xml version="1.0" encoding="UTF-8"?>
<svg width="200px" height="200px" viewBox="0 0 200 200" version="1.1" xmlns="http://www.w3.org/2000/svg" xmlns:xlink="http://www.w3.org/1999/xlink">
    <!-- Generator: Sketch 53.2 (72643) - https://sketchapp.com -->
    <title>icon-200x200</title>
    <desc>Created with Sketch.</desc>
    <defs>
        <linearGradient x1="9.48666%" y1="20%" x2="33.50654%" y2="20%" id="linearGradient-1">
            <stop stop-color="#C0469A" offset="0%"></stop>
            <stop stop-color="#A04E9E" offset="100%"></stop>
        </linearGradient>
        <path d="M93.0399017,65.5319168 L93.0399017,65.3318161 C106.921675,60.7294999 116.516431,52.3252703 116.516431,36.1171132 C116.516431,20.9094597 109.779688,0.4991878 72.4213848,0.4991878 L0.766935002,0.4991878 L0.766935002,140.36958 L68.7467977,140.36958 C94.0606204,140.36958 123.457318,134.766761 123.457318,101.149842 C123.355246,75.7370527 103.961591,67.7330246 93.0399017,65.5319168 Z M34.4506507,27.812934 L64.0514918,27.812934 C78.9539843,27.812934 82.220284,35.6168615 82.220284,41.4197819 C82.220284,46.8225009 79.158128,55.8270326 65.480498,55.8270326 L34.4506507,55.8270326 L34.4506507,27.812934 Z M69.3592289,113.255935 L34.4506507,113.255935 L34.4506507,81.5399732 L65.0722105,81.5399732 C77.3208344,81.5399732 87.9363084,84.1412823 87.9363084,97.5480295 C87.9363084,110.354475 75.2793971,113.255935 69.3592289,113.255935 Z" id="path-2"></path>
    </defs>
    <g id="icon-200x200" stroke="none" stroke-width="1" fill="none" fill-rule="evenodd">
        <g id="Group-28">
            <g id="b20-icon" transform="translate(0.155655, 0.155655)">
                <g id="Group" fill-rule="nonzero">
                    <circle id="Oval" fill="#CA3D9E" cx="99.5200692" cy="99.5200692" r="99.5200692"></circle>
                    <circle id="Oval" fill="#FFFFFF" cx="99.5200692" cy="99.5200692" r="94.2455055"></circle>
                </g>
                <g id="Group" transform="translate(42.038359, 24.522376)">
                    <g id="SVGID_2_-link" transform="translate(0.691455, 1.366279)">
                        <g id="Group-32" transform="translate(0.662071, 0.501316)">
                            <mask id="mask-3" fill="white">
                                <use xlink:href="#path-2"></use>
                            </mask>
                            <use id="Mask" fill="#CA3D9E" fill-rule="nonzero" xlink:href="#path-2"></use>
                            <g mask="url(#mask-3)" fill="#010101" fill-rule="nonzero" id="Rectangle">
                                <g transform="translate(-103.113726, -98.655164)">
                                    <polygon transform="translate(99.846097, 101.056359) rotate(-45.000000) translate(-99.846097, -101.056359) " points="-37.4077232 98.2689223 237.071617 101.014111 237.099918 103.843795 -37.3794223 101.098606"></polygon>
                                    <polygon transform="translate(106.024722, 107.030655) rotate(-45.000000) translate(-106.024722, -107.030655) " points="-31.2290988 104.243219 243.250241 106.988408 243.278542 109.818092 -31.2007979 107.072903"></polygon>
                                    <polygon transform="translate(112.131273, 113.075598) rotate(-45.000000) translate(-112.131273, -113.075598) " points="-25.1225474 110.288161 249.356793 113.03335 249.385094 115.863034 -25.0942464 113.117845"></polygon>
                                    <polygon transform="translate(118.382073, 119.120640) rotate(-45.000000) translate(-118.382073, -119.120640) " points="-18.8717479 116.333203 255.607592 119.078393 255.635893 121.908076 -18.843447 119.162887"></polygon>
                                    <polygon transform="translate(124.488522, 125.165582) rotate(-45.000000) translate(-124.488522, -125.165582) " points="-12.7652986 122.378146 261.714041 125.123335 261.742342 127.953019 -12.7369977 125.20783"></polygon>
                                    <polygon transform="translate(130.739423, 131.210624) rotate(-45.000000) translate(-130.739423, -131.210624) " points="-6.51439709 128.423188 267.964943 131.168377 267.993244 133.998061 -6.48609617 131.252872"></polygon>
                                    <polygon transform="translate(136.845873, 137.255667) rotate(-45.000000) translate(-136.845873, -137.255667) " points="-0.407947716 134.46823 274.071392 137.213419 274.099693 140.043103 -0.379646798 137.297914"></polygon>
                                    <polygon transform="translate(142.952424, 143.300609) rotate(-45.000000) translate(-142.952424, -143.300609) " points="5.69860373 140.513173 280.177944 143.258362 280.206245 146.088046 5.72690465 143.342856"></polygon>
                                    <polygon transform="translate(149.203224, 149.345651) rotate(-45.000000) translate(-149.203224, -149.345651) " points="11.9494031 146.558215 286.428743 149.303404 286.457044 152.133088 11.9777041 149.387899"></polygon>
                                    <polygon transform="translate(155.309673, 155.390594) rotate(-45.000000) translate(-155.309673, -155.390594) " points="18.0558525 152.603157 292.535192 155.348346 292.563493 158.17803 18.0841534 155.432841"></polygon>
                                    <polygon transform="translate(161.560574, 161.435636) rotate(-45.000000) translate(-161.560574, -161.435636) " points="24.306754 158.648199 298.786094 161.393388 298.814395 164.223072 24.3350549 161.477883"></polygon>
                                    <polygon transform="translate(167.667024, 167.480678) rotate(-45.000000) translate(-167.667024, -167.480678) " points="30.4132034 164.693242 304.892543 167.438431 304.920844 170.268115 30.4415043 167.522926"></polygon>
                                    <polygon transform="translate(173.845648, 173.596366) rotate(-45.000000) translate(-173.845648, -173.596366) " points="36.5918278 170.808929 311.071168 173.554119 311.099469 176.383802 36.6201287 173.638613"></polygon>
                                    <polygon transform="translate(180.024375, 179.570663) rotate(-45.000000) translate(-180.024375, -179.570663) " points="42.7705542 176.783226 317.249894 179.528415 317.278195 182.358099 42.7988551 179.61291"></polygon>
                                    <polygon transform="translate(186.130824, 185.615605) rotate(-45.000000) translate(-186.130824, -185.615605) " points="48.8770036 182.828168 323.356344 185.573357 323.384645 188.403041 48.9053045 185.657852"></polygon>
                                    <polygon transform="translate(192.381623, 191.660647) rotate(-45.000000) translate(-192.381623, -191.660647) " points="55.127803 188.873211 329.607143 191.6184 329.635444 194.448084 55.1561039 191.702895"></polygon>
                                    <polygon transform="translate(198.488175, 197.705689) rotate(-45.000000) translate(-198.488175, -197.705689) " points="61.2343545 194.918253 335.713694 197.663442 335.741995 200.493126 61.2626554 197.747937"></polygon>
                                    <polygon transform="translate(204.738974, 203.750632) rotate(-45.000000) translate(-204.738974, -203.750632) " points="67.4851539 200.963195 341.964494 203.708384 341.992795 206.538068 67.5134548 203.792879"></polygon>
                                    <polygon transform="translate(210.845526, 209.795674) rotate(-45.000000) translate(-210.845526, -209.795674) " points="73.5917053 207.008237 348.071045 209.753427 348.099346 212.58311 73.6200062 209.837921"></polygon>
                                    <polygon transform="translate(217.024150, 215.911362) rotate(-45.000000) translate(-217.024150, -215.911362) " points="79.7703297 213.123925 354.24967 215.869114 354.277971 218.698798 79.7986306 215.953609"></polygon>
                                </g>
                            </g>
                        </g>
                    </g>
                </g>
            </g>
        </g>
    </g>
</svg>