<?xml version="1.0" encoding="UTF-8"?>
<svg width="698px" height="1197px" viewBox="0 0 698 1197" version="1.1" xmlns="http://www.w3.org/2000/svg" xmlns:xlink="http://www.w3.org/1999/xlink">
    <!-- Generator: Sketch 53.2 (72643) - https://sketchapp.com -->
    <title>B.20 - vertical-white</title>
    <desc>Created with Sketch.</desc>
    <defs>
        <polygon id="path-1" points="0.06 0.673 548.257 0.673 548.257 302 0.06 302"></polygon>
        <path d="M59.77,144.861 L113.309,144.861 C134.724,144.861 153.285,149.499 153.285,173.404 C153.285,196.237 131.155,201.588 120.804,201.588 L59.77,201.588 L59.77,144.861 Z M59.77,48.887 L111.525,48.887 C137.58,48.887 143.291,62.801 143.291,73.148 C143.291,82.781 137.937,98.836 114.022,98.836 L59.77,98.836 L59.77,48.887 Z M0.876,0.364 L0.876,250.111 L119.734,250.111 C163.993,250.111 215.39,240.121 215.39,180.182 C215.39,134.514 181.482,120.243 162.208,116.319 L162.208,115.962 C186.479,107.756 203.255,92.771 203.255,63.872 C203.255,36.757 191.477,0.364 126.159,0.364 L0.876,0.364 L0.876,0.364 Z" id="path-3"></path>
        <linearGradient x1="5.98604452%" y1="8.29719676%" x2="78.9410552%" y2="93.2347536%" id="linearGradient-5">
            <stop stop-color="#AF4187" offset="0%"></stop>
            <stop stop-color="#92498C" offset="100%"></stop>
        </linearGradient>
    </defs>
    <g id="B.20---vertical-white" stroke="none" stroke-width="1" fill="none" fill-rule="evenodd">
        <g id="Group-3" transform="translate(0.000000, 895.000000)">
            <mask id="mask-2" fill="white">
                <use xlink:href="#path-1"></use>
            </mask>
            <g id="Clip-2"></g>
            <path d="M541.957,233.68 L515.891,277.29 L515.891,301.42 L509.205,301.42 L509.205,277.29 L482.752,233.68 L489.728,233.68 L512.596,270.12 L534.98,233.68 L541.957,233.68 Z M449.03,273.51 C455.489,273.51 460.464,272.04 463.952,269.1 C467.44,266.16 469.185,261.92 469.185,256.36 C469.185,250.93 467.44,246.8 463.952,243.96 C460.464,241.11 455.489,239.69 449.03,239.69 L430.425,239.69 L430.425,273.51 L449.03,273.51 Z M468.41,301.42 L453.777,279.32 C451.709,279.46 450.128,279.52 449.03,279.52 L430.425,279.52 L430.425,301.42 L423.739,301.42 L423.739,233.68 L449.03,233.68 C457.492,233.68 464.032,235.64 468.652,239.55 C473.27,243.46 475.58,249 475.58,256.17 C475.58,261.79 474.225,266.47 471.511,270.22 C468.798,273.96 464.921,276.58 459.883,278.06 L476.162,301.42 L468.41,301.42 Z M359.397,242.89 C355.003,245.41 351.515,248.83 348.932,253.16 C346.348,257.49 345.056,262.24 345.056,267.41 C345.056,272.57 346.348,277.35 348.932,281.75 C351.515,286.14 355.003,289.61 359.397,292.16 C363.79,294.72 368.569,295.99 373.738,295.99 C378.841,295.99 383.574,294.72 387.935,292.16 C392.295,289.61 395.767,286.14 398.351,281.75 C400.935,277.35 402.228,272.57 402.228,267.41 C402.228,262.24 400.935,257.49 398.351,253.16 C395.767,248.83 392.295,245.41 387.935,242.89 C383.574,240.37 378.841,239.11 373.738,239.11 C368.569,239.11 363.79,240.37 359.397,242.89 Z M391.423,237.71 C396.816,240.77 401.097,244.93 404.262,250.16 C407.427,255.39 409.01,261.14 409.01,267.41 C409.01,273.67 407.427,279.46 404.262,284.75 C401.097,290.05 396.816,294.25 391.423,297.35 C386.027,300.45 380.101,302 373.642,302 C367.182,302 361.253,300.45 355.86,297.35 C350.466,294.25 346.186,290.05 343.021,284.75 C339.855,279.46 338.273,273.67 338.273,267.41 C338.273,261.14 339.855,255.39 343.021,250.16 C346.186,244.93 350.466,240.77 355.86,237.71 C361.253,234.64 367.182,233.1 373.642,233.1 C380.101,233.1 386.027,234.64 391.423,237.71 Z M286.14,233.59 L337.595,233.59 L337.595,239.69 L315.21,239.69 L315.21,301.42 L308.524,301.42 L308.524,239.69 L286.14,239.69 L286.14,233.59 Z M265.308,240.71 C262.013,239.77 258.912,239.3 256.005,239.3 C251.354,239.3 247.624,240.23 244.813,242.07 C242.003,243.91 240.599,246.41 240.599,249.58 C240.599,252.35 241.373,254.62 242.923,256.36 C244.474,258.1 246.379,259.48 248.641,260.48 C250.902,261.48 254.002,262.59 257.943,263.82 C262.53,265.18 266.229,266.52 269.039,267.84 C271.849,269.17 274.238,271.09 276.209,273.61 C278.179,276.13 279.165,279.46 279.165,283.59 C279.165,287.21 278.147,290.4 276.113,293.18 C274.077,295.96 271.219,298.11 267.536,299.63 C263.854,301.14 259.623,301.9 254.843,301.9 C250.126,301.9 245.524,300.97 241.035,299.09 C236.543,297.22 232.685,294.73 229.455,291.63 L232.556,286.11 C235.591,289.08 239.111,291.41 243.118,293.08 C247.123,294.76 251.064,295.6 254.939,295.6 C260.107,295.6 264.208,294.55 267.246,292.45 C270.282,290.36 271.8,287.53 271.8,283.98 C271.8,281.13 271.025,278.81 269.475,277 C267.925,275.19 266.018,273.8 263.757,272.83 C261.496,271.86 258.331,270.73 254.261,269.44 C249.673,268.02 245.991,266.68 243.214,265.42 C240.437,264.16 238.079,262.29 236.141,259.8 C234.203,257.31 233.234,254.07 233.234,250.06 C233.234,246.64 234.203,243.63 236.141,241.05 C238.079,238.47 240.792,236.48 244.281,235.09 C247.769,233.7 251.805,233.01 256.393,233.01 C260.075,233.01 263.773,233.56 267.488,234.65 C271.202,235.75 274.48,237.21 277.323,239.01 L274.417,244.73 C271.638,242.99 268.603,241.65 265.308,240.71 Z M208.817,301.42 L215.503,301.42 L215.503,233.68 L208.817,233.68 L208.817,301.42 Z M131.781,233.68 L138.468,233.68 L138.468,264.69 L180.813,264.69 L180.813,233.68 L187.499,233.68 L187.499,301.42 L180.813,301.42 L180.813,270.7 L138.468,270.7 L138.468,301.42 L131.781,301.42 L131.781,233.68 Z M77.131,233.68 L83.72,233.68 L83.72,301.42 L76.646,301.42 L34.689,244.05 L34.689,301.42 L28.003,301.42 L28.003,233.68 L35.077,233.68 L77.131,291.05 L77.131,233.68 Z M0,301.42 L6.687,301.42 L6.687,233.68 L0,233.68 L0,301.42 Z M496.802,118.21 L548.257,118.21 L548.257,124.31 L525.873,124.31 L525.873,186.04 L519.187,186.04 L519.187,124.31 L496.802,124.31 L496.802,118.21 Z M478.393,118.3 L484.981,118.3 L484.981,186.04 L477.909,186.04 L435.95,128.67 L435.95,186.04 L429.265,186.04 L429.265,118.3 L436.339,118.3 L478.393,175.67 L478.393,118.3 Z M366.28,118.3 L411.629,118.3 L411.629,124.31 L372.966,124.31 L372.966,148.54 L407.56,148.54 L407.56,154.54 L372.966,154.54 L372.966,180.03 L412.889,180.03 L412.889,186.04 L366.28,186.04 L366.28,118.3 Z M275.485,118.21 L283.818,118.21 L310.369,169.08 L336.628,118.21 L344.961,118.21 L344.961,186.04 L338.76,186.04 L338.664,127.51 L312.113,178.77 L308.431,178.77 L281.783,127.51 L281.783,186.04 L275.485,186.04 L275.485,118.21 Z M211.144,127.51 C206.75,130.03 203.261,133.45 200.679,137.78 C198.094,142.11 196.802,146.86 196.802,152.02 C196.802,157.19 198.094,161.97 200.679,166.37 C203.261,170.76 206.75,174.23 211.144,176.78 C215.537,179.34 220.316,180.61 225.484,180.61 C230.587,180.61 235.32,179.34 239.681,176.78 C244.041,174.23 247.513,170.76 250.097,166.37 C252.681,161.97 253.974,157.19 253.974,152.02 C253.974,146.86 252.681,142.11 250.097,137.78 C247.513,133.45 244.041,130.03 239.681,127.51 C235.32,124.99 230.587,123.73 225.484,123.73 C220.316,123.73 215.537,124.99 211.144,127.51 Z M243.169,122.33 C248.563,125.39 252.843,129.54 256.008,134.78 C259.173,140.01 260.757,145.76 260.757,152.02 C260.757,158.29 259.173,164.07 256.008,169.37 C252.843,174.67 248.563,178.87 243.169,181.97 C237.774,185.07 231.847,186.62 225.388,186.62 C218.928,186.62 213,185.07 207.607,181.97 C202.212,178.87 197.932,174.67 194.768,169.37 C191.602,164.07 190.019,158.29 190.019,152.02 C190.019,145.76 191.602,140.01 194.768,134.78 C197.932,129.54 202.212,125.39 207.607,122.33 C213,119.26 218.928,117.72 225.388,117.72 C231.847,117.72 237.774,119.26 243.169,122.33 Z M105.813,118.21 L114.147,118.21 L140.697,169.08 L166.957,118.21 L175.29,118.21 L175.29,186.04 L169.089,186.04 L168.992,127.51 L142.442,178.77 L138.759,178.77 L112.111,127.51 L112.111,186.04 L105.813,186.04 L105.813,118.21 Z M17.732,162.01 L50.097,162.01 L33.817,125.38 L17.732,162.01 Z M60.756,186.04 L52.713,168.01 L15.116,168.01 L7.17,186.04 L0,186.04 L30.523,118.3 L37.5,118.3 L68.023,186.04 L60.756,186.04 Z M282.364,1.351 L327.713,1.351 L327.713,7.36 L289.049,7.36 L289.049,31.583 L323.643,31.583 L323.643,37.592 L289.049,37.592 L289.049,63.076 L328.973,63.076 L328.973,69.084 L282.364,69.084 L282.364,1.351 Z M237.597,41.177 C244.056,41.177 249.031,39.708 252.52,36.769 C256.007,33.829 257.752,29.582 257.752,24.026 C257.752,18.599 256.007,14.466 252.52,11.622 C249.031,8.78 244.056,7.36 237.597,7.36 L218.992,7.36 L218.992,41.177 L237.597,41.177 Z M256.978,69.084 L242.345,46.99 C240.276,47.121 238.695,47.185 237.597,47.185 L218.992,47.185 L218.992,69.084 L212.306,69.084 L212.306,1.351 L237.597,1.351 C246.06,1.351 252.6,3.305 257.219,7.214 C261.837,11.122 264.148,16.661 264.148,23.832 C264.148,29.451 262.792,34.137 260.078,37.883 C257.365,41.629 253.488,44.246 248.45,45.731 L264.729,69.084 L256.978,69.084 Z M150.872,45.053 L183.237,45.053 L166.958,8.425 L150.872,45.053 Z M193.896,69.084 L185.853,51.061 L148.256,51.061 L140.311,69.084 L133.14,69.084 L163.663,1.351 L170.64,1.351 L201.164,69.084 L193.896,69.084 Z M66.278,1.351 L72.965,1.351 L72.965,32.36 L115.31,32.36 L115.31,1.351 L121.996,1.351 L121.996,69.084 L115.31,69.084 L115.31,38.366 L72.965,38.366 L72.965,69.084 L66.278,69.084 L66.278,1.351 Z M35.853,8.376 C32.559,7.441 29.458,6.971 26.551,6.971 C21.9,6.971 18.169,7.892 15.359,9.733 C12.549,11.574 11.144,14.077 11.144,17.243 C11.144,20.021 11.919,22.281 13.469,24.026 C15.02,25.77 16.924,27.143 19.186,28.145 C21.447,29.147 24.548,30.261 28.489,31.488 C33.075,32.843 36.774,34.185 39.584,35.509 C42.394,36.833 44.783,38.755 46.754,41.275 C48.725,43.793 49.71,47.121 49.71,51.254 C49.71,54.873 48.693,58.071 46.657,60.848 C44.623,63.626 41.764,65.775 38.082,67.292 C34.4,68.81 30.168,69.57 25.388,69.57 C20.672,69.57 16.069,68.633 11.58,66.758 C7.089,64.886 3.229,62.398 0,59.297 L3.101,53.774 C6.137,56.745 9.657,59.071 13.663,60.751 C17.668,62.431 21.609,63.27 25.485,63.27 C30.652,63.27 34.754,62.221 37.792,60.12 C40.827,58.023 42.345,55.196 42.345,51.642 C42.345,48.801 41.57,46.475 40.02,44.665 C38.469,42.858 36.564,41.467 34.303,40.498 C32.04,39.529 28.876,38.4 24.807,37.107 C20.219,35.688 16.537,34.346 13.76,33.086 C10.982,31.826 8.624,29.953 6.687,27.465 C4.748,24.979 3.779,21.733 3.779,17.727 C3.779,14.304 4.748,11.3 6.687,8.715 C8.624,6.133 11.337,4.147 14.826,2.756 C18.314,1.367 22.351,0.673 26.939,0.673 C30.621,0.673 34.318,1.222 38.033,2.32 C41.747,3.419 45.025,4.873 47.869,6.68 L44.962,12.398 C42.184,10.654 39.148,9.314 35.853,8.376 L35.853,8.376 Z" id="Fill-1" fill="#FFFFFE" mask="url(#mask-2)"></path>
        </g>
        <path d="M203.499,807.739 L159.413,807.739 C163.28,800.781 169.467,797.303 179.006,791.891 C199.245,780.294 203.627,770.501 203.627,759.033 C203.627,731.072 172.129,730.686 167.875,730.686 C139.129,730.686 134.018,748.726 134.018,761.739 L134.018,764.446 L153.741,764.446 L153.741,761.224 C153.741,752.075 159.799,746.406 169.081,746.406 C176.815,746.406 183.518,750.272 183.518,759.936 C183.518,771.789 174.108,775.269 157.222,786.994 C138.144,800.008 134.405,808.126 134.405,819.852 L134.405,823.459 L203.499,823.459 L203.499,807.739 Z M246.585,808.143 C232.166,808.143 230.786,789.719 230.786,777.06 C230.786,764.401 232.166,745.977 246.585,745.977 C261.38,745.977 262.383,764.025 262.383,777.06 C262.383,790.095 261.38,808.143 246.585,808.143 Z M246.585,823.434 C252.979,823.434 282.194,822.556 282.194,777.06 C282.194,731.564 251.001,730.686 244.606,730.686 C238.086,730.686 210.975,731.564 210.975,777.06 C210.975,822.556 240.064,823.434 246.585,823.434 Z M22.752,767.263 L42.907,767.263 C51.791,767.263 53.781,761.3 53.781,757.722 C53.781,753.877 51.658,748.708 41.979,748.708 L22.752,748.708 L22.752,767.263 Z M22.752,805.434 L45.426,805.434 C49.271,805.434 57.493,803.446 57.493,794.963 C57.493,786.083 50.598,784.361 42.643,784.361 L22.752,784.361 L22.752,805.434 Z M96.077,823.459 L117.956,823.459 L117.956,802.519 L96.077,802.519 L96.077,823.459 Z M0.876,823.459 L0.876,730.682 L47.414,730.682 C71.679,730.682 76.055,744.203 76.055,754.276 C76.055,765.011 69.824,770.576 60.808,773.625 L60.808,773.757 C67.968,775.215 80.564,780.516 80.564,797.482 C80.564,819.747 61.47,823.459 45.028,823.459 L0.876,823.459 L0.876,823.459 Z" id="Fill-4" fill="#FFFFFE"></path>
        <path d="M114.022,433.083 L59.77,433.083 L59.77,426.519 L54.77,426.519 L54.77,438.083 L114.022,438.083 C127.732,438.083 136.639,433.222 141.93,426.519 L135,426.519 C130.524,430.375 123.84,433.083 114.022,433.083 Z M366.567,542.029 C376.981,523.292 393.643,513.925 419.328,499.352 C464.413,473.518 480.275,451.008 484.41,426.519 L479.313,426.519 C477.605,435.959 474.187,444.22 468.778,452.173 C458.971,466.595 441.982,480.609 416.86,495.004 L416.354,495.29 C390.383,510.025 373.225,519.759 362.197,539.6 L358.068,547.029 L480.278,547.029 L480.278,579.358 L304.229,579.358 L304.229,574.643 C304.229,557.751 307.314,546.099 314.879,534.426 C323.574,521.009 339.019,506.987 363.519,490.274 C371.927,484.436 379.759,479.285 386.669,474.74 C412.495,457.756 429.796,446.36 434.897,426.519 L429.712,426.519 C423.252,448.605 399.187,459.421 360.667,486.167 C309.295,521.211 299.229,543.07 299.229,574.643 L299.229,584.358 L485.278,584.358 L485.278,542.029 L366.567,542.029 Z M234.767,579.358 L273.281,579.358 L273.281,540.843 L234.767,540.843 L234.767,579.358 Z M229.767,584.358 L278.281,584.358 L278.281,535.843 L229.767,535.843 L229.767,584.358 Z M215.39,514.43 C215.39,468.761 181.482,454.49 162.208,450.566 L162.208,450.209 C176.792,445.278 188.664,437.894 195.822,426.519 L189.729,426.519 C183.544,434.751 173.924,440.97 160.606,445.472 L157.208,446.621 L157.208,454.65 L161.21,455.465 C168.286,456.906 181.785,460.783 192.688,470.566 C204.434,481.104 210.39,495.862 210.39,514.43 C210.39,539.66 201.029,557.012 181.772,567.478 C167.062,575.472 146.769,579.358 119.734,579.358 L5.876,579.358 L5.876,426.519 L0.876,426.519 L0.876,584.358 L119.734,584.358 C163.993,584.358 215.39,574.368 215.39,514.43 Z M643.84,459.417 C643.84,494.516 641.139,543.115 601.298,543.115 C562.471,543.115 558.757,493.504 558.757,459.417 C558.757,449.256 559.088,437.714 560.58,426.519 L555.559,426.519 C554.024,438.368 553.757,450.171 553.757,459.417 C553.757,474.929 554.481,497.639 560.743,515.687 C568.209,537.205 581.854,548.115 601.298,548.115 C621.188,548.115 634.963,537.325 642.24,516.046 C648.056,499.04 648.84,477.877 648.84,459.417 C648.84,448.905 648.582,437.518 647.289,426.519 L642.261,426.519 C643.604,437.599 643.84,449.092 643.84,459.417 Z M59.77,535.836 L120.804,535.836 C131.155,535.836 153.285,530.485 153.285,507.651 C153.285,483.746 134.724,479.108 113.309,479.108 L59.77,479.108 L59.77,535.836 Z M59.77,540.836 L54.77,540.836 L54.77,474.108 L113.309,474.108 C126.937,474.108 136.623,476.001 143.793,480.065 C153.41,485.516 158.285,494.797 158.285,507.651 C158.285,533.9 133.768,540.836 120.804,540.836 L59.77,540.836 Z M689.821,426.519 L694.858,426.519 C696.354,436.393 697.186,447.31 697.186,459.417 C697.186,581.925 618.518,584.288 601.298,584.288 C583.741,584.288 505.41,581.925 505.41,459.417 C505.41,447.31 506.133,436.393 507.436,426.519 L512.459,426.519 C511.101,436.644 510.41,447.607 510.41,459.417 C510.41,509.602 523.636,544.706 549.72,563.756 C563.832,574.062 581.186,579.288 601.298,579.288 C621.299,579.288 638.611,574.062 652.754,563.753 C678.919,544.681 692.186,509.577 692.186,459.417 C692.186,447.61 691.389,436.647 689.821,426.519 L689.821,426.519 Z" id="Fill-5" fill="#FFFFFE"></path>
        <path d="M601.298,375.867 C562.471,375.867 558.757,326.257 558.757,292.17 C558.757,258.083 562.471,208.471 601.298,208.471 C641.139,208.471 643.84,257.07 643.84,292.17 C643.84,327.268 641.139,375.867 601.298,375.867 Z M601.298,417.041 C618.518,417.041 697.186,414.678 697.186,292.17 C697.186,169.66 613.189,167.297 595.97,167.297 C578.413,167.297 505.41,169.66 505.41,292.17 C505.41,414.678 583.741,417.041 601.298,417.041 L601.298,417.041 Z" id="Fill-6" fill="#FFFFFE"></path>
        <path d="M485.278,374.781 L366.567,374.781 C376.981,356.045 393.643,346.677 419.328,332.105 C473.824,300.878 485.626,274.509 485.626,243.629 C485.626,168.339 400.81,167.297 389.354,167.297 C311.95,167.297 298.187,215.873 298.187,250.915 L298.187,258.202 L351.294,258.202 L351.294,249.528 C351.294,224.893 367.608,209.627 392.601,209.627 C413.427,209.627 431.477,220.035 431.477,246.058 C431.477,277.978 406.139,287.347 360.667,318.92 C309.295,353.964 299.229,375.823 299.229,407.396 L299.229,417.111 L485.278,417.111 L485.278,374.781" id="Fill-7" fill="#FFFFFE"></path>
        <polygon id="Fill-8" fill="#FFFFFE" points="229.767 417.111 278.281 417.111 278.281 368.596 229.767 368.596"></polygon>
        <g id="Group-11" transform="translate(0.000000, 167.000000)">
            <mask id="mask-4" fill="white">
                <use xlink:href="#path-3"></use>
            </mask>
            <g id="Clip-10"></g>
            <path d="M59.77,144.861 L113.309,144.861 C134.724,144.861 153.285,149.499 153.285,173.404 C153.285,196.237 131.155,201.588 120.804,201.588 L59.77,201.588 L59.77,144.861 Z M59.77,48.887 L111.525,48.887 C137.58,48.887 143.291,62.801 143.291,73.148 C143.291,82.781 137.937,98.836 114.022,98.836 L59.77,98.836 L59.77,48.887 Z M0.876,0.364 L0.876,250.111 L119.734,250.111 C163.993,250.111 215.39,240.121 215.39,180.182 C215.39,134.514 181.482,120.243 162.208,116.319 L162.208,115.962 C186.479,107.756 203.255,92.771 203.255,63.872 C203.255,36.757 191.477,0.364 126.159,0.364 L0.876,0.364 L0.876,0.364 Z" id="Fill-9" fill="url(#linearGradient-5)" mask="url(#mask-4)"></path>
        </g>
        <path d="M59.77,98.589 L114.022,98.589 C137.937,98.589 143.291,82.534 143.291,72.9 C143.291,62.554 137.58,48.64 111.525,48.64 L59.77,48.64 L59.77,98.589 Z M59.77,103.589 L54.77,103.589 L54.77,43.64 L111.525,43.64 C145.639,43.64 148.291,66.036 148.291,72.9 C148.291,87.057 139.316,103.589 114.022,103.589 L59.77,103.589 Z M485.626,76.382 C485.626,1.091 400.81,0.05 389.354,0.05 C311.95,0.05 298.188,48.625 298.188,83.668 L298.188,90.955 L351.295,90.955 L351.295,82.281 C351.295,57.646 367.608,42.38 392.601,42.38 C413.427,42.38 431.477,52.788 431.477,78.811 C431.477,110.731 406.139,120.1 360.667,151.673 C357.526,153.815 354.543,155.907 351.704,157.956 L360.37,157.956 C361.409,157.234 362.444,156.512 363.519,155.78 C371.926,149.942 379.758,144.791 386.668,140.247 C417.729,119.819 436.477,107.489 436.477,78.811 C436.477,53.256 419.664,37.38 392.601,37.38 C364.471,37.38 346.295,55.005 346.295,82.281 L346.295,85.955 L303.188,85.955 L303.188,83.668 C303.188,62.203 308.394,44.761 318.661,31.826 C332.764,14.059 356.549,5.05 389.354,5.05 C397.822,5.05 419.69,5.979 439.821,14.58 C466.897,26.149 480.626,46.942 480.626,76.382 C480.626,92.893 476.972,105.63 468.778,117.678 C459.551,131.247 443.964,144.453 421.232,157.956 L430.805,157.956 C475.512,129.677 485.626,104.961 485.626,76.382 Z M54.77,144.613 L54.77,157.956 L59.77,157.956 L59.77,144.613 L113.31,144.613 C129.052,144.613 143.242,147.131 149.66,157.956 L155.303,157.956 C152.903,152.707 149.066,148.559 143.793,145.571 C136.623,141.506 126.937,139.613 113.31,139.613 L54.77,139.613 L54.77,144.613 Z M595.97,0.05 C578.413,0.05 505.41,2.413 505.41,124.923 C505.41,137.086 506.193,148.047 507.602,157.956 L512.632,157.956 C511.159,147.792 510.41,136.784 510.41,124.923 C510.41,74.605 522.78,39.469 547.176,20.491 C560.348,10.245 576.765,5.05 595.97,5.05 C622.006,5.05 639.833,13.542 650.203,20.666 C678.061,39.803 692.186,74.88 692.186,124.923 C692.186,136.783 691.434,147.792 689.955,157.956 L694.985,157.956 C696.399,148.047 697.186,137.086 697.186,124.923 C697.186,2.413 613.189,0.05 595.97,0.05 Z M162.208,116.071 L162.208,115.715 C186.479,107.508 203.255,92.524 203.255,63.625 C203.255,36.51 191.477,0.117 126.159,0.117 L0.876,0.117 L0.876,157.956 L5.876,157.956 L5.876,5.117 L126.159,5.117 C153.759,5.117 173.713,11.816 185.465,25.026 C193.952,34.565 198.255,47.552 198.255,63.625 C198.255,87.247 186.292,102.294 160.606,110.978 L157.208,112.127 L157.208,120.156 L161.21,120.971 C168.287,122.412 181.785,126.289 192.688,136.071 C199.338,142.037 204.129,149.359 207.037,157.956 L212.289,157.956 C203.494,129.414 177.965,119.279 162.208,116.071 Z M560.599,157.956 L555.576,157.956 C554.026,146.062 553.757,134.204 553.757,124.923 C553.757,109.41 554.481,86.7 560.744,68.652 C568.21,47.135 581.854,36.224 601.298,36.224 C621.188,36.224 634.963,47.014 642.24,68.293 C648.056,85.299 648.84,106.463 648.84,124.923 C648.84,135.478 648.578,146.915 647.271,157.956 L642.244,157.956 C643.604,146.834 643.84,135.289 643.84,124.923 C643.84,89.823 641.139,41.224 601.298,41.224 C562.471,41.224 558.757,90.836 558.757,124.923 C558.757,135.125 559.091,146.718 560.599,157.956 L560.599,157.956 Z" id="Fill-12" fill="#FFFFFE"></path>
    </g>
</svg>