<?xml version="1.0" encoding="UTF-8"?>
<svg width="33px" height="16px" viewBox="0 0 33 16" version="1.1" xmlns="http://www.w3.org/2000/svg" xmlns:xlink="http://www.w3.org/1999/xlink">
    <!-- Generator: Sketch 53.2 (72643) - https://sketchapp.com -->
    <title>Path</title>
    <desc>Created with Sketch.</desc>
    <g id="Page-1" stroke="none" stroke-width="1" fill="none" fill-rule="evenodd">
        <g id="b20-new2" transform="translate(-760.000000, -691.000000)" fill="#000000" fill-rule="nonzero">
            <g id="Group-2" transform="translate(602.000000, 196.000000)">
                <g id="Group-12" transform="translate(48.000000, 491.000000)">
                    <g id="545682" transform="translate(110.000000, 4.000000)">
                        <path d="M32.2923876,7.08664472 C32.2920048,7.08625763 32.2916858,7.08580601 32.2912392,7.08541892 L25.6236696,0.375737725 C25.1241633,-0.126907719 24.3162379,-0.12503675 23.8190285,0.380124824 C23.321883,0.885221883 23.323797,1.70219008 23.8233033,2.20490004 L28.2999104,6.70967677 L1.27604103,6.70967677 C0.571283571,6.70967677 0,7.28735451 0,8.00000007 C0,8.71264564 0.571283571,9.29032338 1.27604103,9.29032338 L28.2998466,9.29032338 L23.8233671,13.7951001 C23.3238608,14.2978101 23.3219468,15.1147783 23.8190923,15.6198753 C24.3163017,16.1251014 25.1242909,16.1268434 25.6237334,15.6242624 L32.291303,8.91458123 C32.2916858,8.91419414 32.2920048,8.91374252 32.2924514,8.91335543 C32.7922129,8.40896805 32.7906178,7.58935468 32.2923876,7.08664472 Z" id="Path" transform="translate(16.333333, 8.000000) scale(-1, 1) translate(-16.333333, -8.000000) "></path>
                    </g>
                </g>
            </g>
        </g>
    </g>
</svg>
