<?xml version="1.0" encoding="UTF-8"?>
<svg width="33px" height="16px" viewBox="0 0 33 16" version="1.1" xmlns="http://www.w3.org/2000/svg" xmlns:xlink="http://www.w3.org/1999/xlink">
    <!-- Generator: Sketch 53.2 (72643) - https://sketchapp.com -->
    <title>right-arrow</title>
    <desc>Created with Sketch.</desc>
    <g id="Page-1" stroke="none" stroke-width="1" fill="none" fill-rule="evenodd">
        <g id="b20-Buyout--step2" transform="translate(-1007.000000, -245.000000)" fill="#0338FE" fill-rule="nonzero">
            <g id="Group-4" transform="translate(1007.000000, 243.000000)">
                <g id="right-arrow" transform="translate(16.516129, 10.000000) scale(-1, 1) translate(-16.516129, -10.000000) translate(0.000000, 2.000000)">
                    <path d="M32.6538065,7.08664516 C32.6534194,7.08625806 32.6530968,7.08580645 32.6526452,7.08541935 L25.9104516,0.375741935 C25.4053548,-0.126903226 24.5883871,-0.125032258 24.0856129,0.380129032 C23.5829032,0.885225806 23.5848387,1.70219355 24.0899355,2.20490323 L28.6166452,6.70967742 L1.29032258,6.70967742 C0.577677419,6.70967742 0,7.28735484 0,8 C0,8.71264516 0.577677419,9.29032258 1.29032258,9.29032258 L28.6165806,9.29032258 L24.09,13.7950968 C23.5849032,14.2978065 23.5829677,15.1147742 24.0856774,15.619871 C24.5884516,16.1250968 25.4054839,16.1268387 25.9105161,15.6242581 L32.6527097,8.91458065 C32.6530968,8.91419355 32.6534194,8.91374194 32.653871,8.91335484 C33.1592258,8.40896774 33.1576129,7.58935484 32.6538065,7.08664516 Z" id="Path"></path>
                </g>
            </g>
        </g>
    </g>
</svg>