<?xml version="1.0" encoding="UTF-8"?>
<svg width="30px" height="30px" viewBox="0 0 30 30" version="1.1" xmlns="http://www.w3.org/2000/svg" xmlns:xlink="http://www.w3.org/1999/xlink">
    <!-- Generator: Sketch 53.2 (72643) - https://sketchapp.com -->
    <title>660252</title>
    <desc>Created with Sketch.</desc>
    <defs>
        <linearGradient x1="50%" y1="0%" x2="50%" y2="97.6826436%" id="linearGradient-1">
            <stop stop-color="#FD02B7" offset="0%"></stop>
            <stop stop-color="#0337FD" offset="100%"></stop>
        </linearGradient>
    </defs>
    <g id="Page-1" stroke="none" stroke-width="1" fill="none" fill-rule="evenodd">
        <g id="b20-new2" transform="translate(-877.000000, -169.000000)" fill="url(#linearGradient-1)" fill-rule="nonzero">
            <g id="660252" transform="translate(877.000000, 169.000000)">
                <path d="M25.6113657,4.38872651 C19.7586222,-1.46290884 10.2404105,-1.46290884 4.38766707,4.38872651 C-1.46255569,10.2403619 -1.46255569,19.7612356 4.38766707,25.612871 C7.31403881,28.5380731 11.1570707,30 15.0001612,30 C18.8432517,30 22.6849939,28.5380145 25.6113657,25.612871 C31.4628781,19.7612942 31.4628781,10.2403619 25.6113657,4.38872651 Z M21.1892733,19.4223392 C21.678233,19.9113091 21.678233,20.7017157 21.1892733,21.1906857 C20.945409,21.4345551 20.6252785,21.5571347 20.3050893,21.5571347 C19.9849588,21.5571347 19.6647696,21.4345551 19.4209053,21.1906857 L15.0001026,16.7685004 L10.5805309,21.189396 C10.3354356,21.4332654 10.0152464,21.555845 9.69634692,21.555845 C9.37621639,21.555845 9.05602724,21.4332654 8.81216293,21.189396 C8.32320326,20.700426 8.32320326,19.9087883 8.81216293,19.4210495 L13.2317346,15.0001539 L8.81093188,10.5792583 C8.32197221,10.0902884 8.32197221,9.29865066 8.81093188,8.81091179 C9.2986605,8.32194185 10.0902816,8.32194185 10.5792412,8.81091179 L15.000044,13.2318074 L19.4208467,8.81091179 C19.9098064,8.32194185 20.7001964,8.32194185 21.189156,8.81091179 C21.6781157,9.29865066 21.6781157,10.0902884 21.189156,10.5792583 L16.7683533,15.0001539 L21.1892733,19.4223392 Z" id="Shape"></path>
            </g>
        </g>
    </g>
</svg>