<?xml version="1.0" encoding="UTF-8"?>
<svg width="16px" height="16px" viewBox="0 0 16 16" version="1.1" xmlns="http://www.w3.org/2000/svg" xmlns:xlink="http://www.w3.org/1999/xlink">
    <!-- Generator: Sketch 53.2 (72643) - https://sketchapp.com -->
    <title>2413320</title>
    <desc>Created with Sketch.</desc>
    <g id="Page-1" stroke="none" stroke-width="1" fill="none" fill-rule="evenodd">
        <g id="b20-new" transform="translate(-1267.000000, -686.000000)" fill="#000000" fill-rule="nonzero">
            <g id="Group-7" transform="translate(986.000000, 676.000000)">
                <g id="2413320" transform="translate(281.000000, 10.000000)">
                    <path d="M15.1724138,16 L0.827586207,16 C0.370522966,16 0,15.629477 0,15.1724138 L0,0.827586207 C-1.22507368e-16,0.370522966 0.370522966,0 0.827586207,0 L6.89655172,0 C7.35361497,0 7.72413793,0.370522966 7.72413793,0.827586207 C7.72413793,1.28464945 7.35361497,1.65517241 6.89655172,1.65517241 L1.65517241,1.65517241 L1.65517241,14.3448276 L14.3448276,14.3448276 L14.3448276,9.10344828 C14.3448276,8.64638503 14.7153506,8.27586207 15.1724138,8.27586207 C15.629477,8.27586207 16,8.64638503 16,9.10344828 L16,15.1724138 C16,15.629477 15.629477,16 15.1724138,16 Z M13.7931034,2.20689655 L12.6227241,2.20689655 L9.06996552,5.75962069 C8.74676467,6.08282153 8.74676467,6.60683364 9.06996552,6.93003448 C9.39316636,7.25323533 9.91717847,7.25323533 10.2403793,6.93003448 L13.7931034,3.37727586 L13.7931034,2.20689655 Z M16,5.24137931 L16,0.827586207 C16,0.370522966 15.629477,0 15.1724138,0 L10.7586207,0 C10.3015574,0 9.93103448,0.370522966 9.93103448,0.827586207 C9.93103448,1.28464945 10.3015574,1.65517241 10.7586207,1.65517241 L14.3448276,1.65517241 L14.3448276,5.24137931 C14.3448276,5.69844255 14.7153506,6.06896552 15.1724138,6.06896552 C15.629477,6.06896552 16,5.69844255 16,5.24137931 Z" id="Shape"></path>
                </g>
            </g>
        </g>
    </g>
</svg>