<?xml version="1.0" encoding="UTF-8"?>
<svg width="16px" height="16px" viewBox="0 0 16 16" version="1.1" xmlns="http://www.w3.org/2000/svg" xmlns:xlink="http://www.w3.org/1999/xlink">
    <!-- Generator: Sketch 53.2 (72643) - https://sketchapp.com -->
    <title>foreign</title>
    <desc>Created with Sketch.</desc>
    <g id="Page-1" stroke="none" stroke-width="1" fill="none" fill-rule="evenodd">
        <g id="b20-new" transform="translate(-1096.000000, -573.000000)" fill="#0337FE" fill-rule="nonzero">
            <g id="Group-14" transform="translate(989.000000, 573.000000)">
                <g id="Group-10">
                    <g id="Group-6">
                        <g id="foreign" transform="translate(107.000000, 0.000000)">
                            <path d="M15.2727188,0 L9.45453125,0 C9.052875,0 8.72725,0.325625 8.72725,0.72728125 C8.72725,1.1289375 9.052875,1.4545625 9.45453125,1.4545625 L13.5169375,1.4545625 L6.03121875,8.9403125 C5.7471875,9.22434375 5.7471875,9.68478125 6.03121875,9.9688125 C6.1731875,10.1108125 6.3593125,10.1818125 6.5454375,10.1818125 C6.7315625,10.1818125 6.91771875,10.1108437 7.05971875,9.96878125 L14.5454688,2.4830625 L14.5454688,6.54546875 C14.5454688,6.947125 14.8710938,7.27275 15.27275,7.27275 C15.6744063,7.27275 16.0000313,6.947125 16.0000313,6.54546875 L16.0000313,0.72728125 C16,0.325625 15.674375,0 15.2727188,0 Z" id="Path"></path>
                            <path d="M12.363625,7.27271875 C11.9619688,7.27271875 11.6363437,7.59834375 11.6363437,8 L11.6363437,14.5454688 L1.45453125,14.5454688 L1.45453125,4.363625 L8,4.363625 C8.40165625,4.363625 8.72728125,4.038 8.72728125,3.63634375 C8.72728125,3.2346875 8.40165625,2.90909375 8,2.90909375 L0.72728125,2.90909375 C0.325625,2.90909375 0,3.23471875 0,3.636375 L0,15.27275 C0,15.674375 0.325625,16 0.72728125,16 L12.3636563,16 C12.7653125,16 13.0909375,15.674375 13.0909375,15.2727187 L13.0909375,8 C13.0909062,7.59834375 12.7652812,7.27271875 12.363625,7.27271875 Z" id="Path"></path>
                        </g>
                    </g>
                </g>
            </g>
        </g>
    </g>
</svg>