<?xml version="1.0" encoding="UTF-8"?>
<svg width="69px" height="50px" viewBox="0 0 69 50" version="1.1" xmlns="http://www.w3.org/2000/svg" xmlns:xlink="http://www.w3.org/1999/xlink">
    <!-- Generator: Sketch 53.2 (72643) - https://sketchapp.com -->
    <title>Group 6</title>
    <desc>Created with Sketch.</desc>
    <g id="Page-1" stroke="none" stroke-width="1" fill="none" fill-rule="evenodd">
        <g id="veto2-copy" transform="translate(-913.000000, -342.000000)" fill-rule="nonzero">
            <g id="Group-3" transform="translate(904.000000, 342.000000)">
                <g id="Group-6" transform="translate(9.765766, 0.000000)">
                    <path d="M61.7954013,0.0720377276 C49.5374939,0.907425345 38.9858356,8.35356365 33.7837838,18.8209111 L38.1570411,20.9459459 C42.8068256,11.6282331 52.403079,5.0940518 63.4200779,4.81168266 C63.6780231,4.80527584 63.9328188,4.81168266 64.1891892,4.81168266 L64.1891892,3.90798505e-13 C63.3966141,3.90798505e-13 62.5999446,0.0168765175 61.7954013,0.0720377276 L61.7954013,0.0720377276 Z" id="Path" fill="#EFC75E" transform="translate(48.986486, 10.472973) scale(-1, 1) translate(-48.986486, -10.472973) "></path>
                    <path d="M3.29506662,33.5736346 C3.29506662,38.0644394 2.14529404,42.4984919 0.34569756,46.3866644 C-0.205668169,47.5784623 0.208012411,48.9985518 1.33387372,49.6502412 L1.37700778,49.67493 C2.62852047,50.3989224 4.20713306,49.86699 4.82179332,48.5413272 C6.92629755,43.9997019 8.10810811,38.8203349 8.10810811,33.5736346 C8.10810811,27.7933987 6.71344037,22.3512718 4.26167576,17.5675676 L-7.9225515e-13,19.8609048 C2.09965946,23.9592531 3.29506662,28.6223989 3.29506662,33.5736346 Z" id="Path" fill="#E2574C" transform="translate(4.054054, 33.783784) scale(-1, 1) translate(-4.054054, -33.783784) "></path>
                    <path d="M66.1642064,49.6820932 L66.2071903,49.658365 C67.3299104,49.0221925 67.7413719,47.6332907 67.1911472,46.4677227 C65.2462827,42.3460689 64.0925706,37.3397378 64.2743176,32.4276782 C64.440958,27.9186774 65.6186538,23.6599452 67.5675676,19.8741738 L63.296746,17.5675676 C61.2475365,21.5627243 59.9390202,26.0143285 59.5697638,30.7251793 C59.076228,37.0195673 60.257973,43.3402488 62.7314146,48.5740821 C63.3430004,49.8691933 64.9162724,50.3904122 66.1642064,49.6820932 Z" id="Path" fill="#3DB39E" transform="translate(63.513514, 33.783784) scale(-1, 1) translate(-63.513514, -33.783784) "></path>
                    <path d="M3.37837838,3.90798505e-13 L3.37837838,4.82478469 C14.8119943,4.82556814 24.7031884,11.3911737 29.43428,20.9459459 L33.7837838,18.8184152 C28.2605269,7.66791661 16.7221397,0.00250703283 3.37837838,3.90798505e-13 L3.37837838,3.90798505e-13 Z" id="Path" fill="#F4B459" transform="translate(18.581081, 10.472973) scale(-1, 1) translate(-18.581081, -10.472973) "></path>
                </g>
            </g>
        </g>
    </g>
</svg>