<?xml version="1.0" encoding="UTF-8"?>
<svg width="9px" height="44px" viewBox="0 0 9 44" version="1.1" xmlns="http://www.w3.org/2000/svg" xmlns:xlink="http://www.w3.org/1999/xlink">
    <!-- Generator: Sketch 53.2 (72643) - https://sketchapp.com -->
    <title>Group 3</title>
    <desc>Created with Sketch.</desc>
    <g id="Page-1" stroke="none" stroke-width="1" fill="none" fill-rule="evenodd">
        <g id="veto2-copy" transform="translate(-947.000000, -348.000000)" fill-rule="nonzero">
            <g id="Group-3" transform="translate(927.898234, 347.727470)">
                <polygon id="Path" fill="#D5D5D5" transform="translate(22.229730, 23.550560) scale(-1, 1) rotate(-47.000000) translate(-22.229730, -23.550560) " points="38.2881357 9.36137091 39.4594595 10.5198499 8.51573478 37.7397493 5 34.2649461"></polygon>
                <g id="Group-19" transform="translate(24.079237, 23.250000) scale(-1, 1) rotate(-46.000000) translate(-24.079237, -23.250000) translate(7.829237, 7.000000)">
                    <polygon id="Path" fill="#324D5B" points="31.2748612 -4.26325641e-14 32.4324324 1.1583917 3.47445644 32.4324324 6.03961325e-13 28.9578911"></polygon>
                    <path d="M7.36486486,21.0135135 C5.12547508,21.0135135 3.31081081,22.8281778 3.31081081,25.0675676 C3.31081081,27.3069573 5.12547508,29.1216216 7.36486486,29.1216216 C9.60425465,29.1216216 11.4189189,27.3069573 11.4189189,25.0675676 C11.4189189,22.8280194 9.60425465,21.0135135 7.36486486,21.0135135 Z" id="Path" fill="#1E2D36"></path>
                </g>
            </g>
        </g>
    </g>
</svg>