<?xml version="1.0" encoding="UTF-8"?>
<svg width="82px" height="60px" viewBox="0 0 82 60" version="1.1" xmlns="http://www.w3.org/2000/svg" xmlns:xlink="http://www.w3.org/1999/xlink">
    <!-- Generator: Sketch 53.2 (72643) - https://sketchapp.com -->
    <title>speedometer (1)</title>
    <desc>Created with Sketch.</desc>
    <g id="Page-1" stroke="none" stroke-width="1" fill="none" fill-rule="evenodd">
        <g id="b20-Buyout-Copy" transform="translate(-1102.000000, -382.000000)" fill-rule="nonzero">
            <g id="speedometer-(1)" transform="translate(1142.081081, 412.000000) scale(-1, 1) translate(-1142.081081, -412.000000) translate(1101.081081, 382.000000)">
                <polygon id="Path" fill="#D5D5D5" points="68.3241412 18.6486486 69.7297297 20.0388235 32.5972601 52.7027027 28.3783784 48.5329388"></polygon>
                <path d="M37.6679951,0.0864452731 C22.9585062,1.08891041 10.2965162,10.0242764 4.05405405,22.5850933 L9.30196278,25.1351351 C14.8817043,13.9538797 26.3972083,6.11286216 39.617607,5.7740192 C39.9271412,5.766331 40.232896,5.7740192 40.5405405,5.7740192 L40.5405405,0 C39.5894504,0 38.633447,0.020251821 37.6679951,0.0864452731 L37.6679951,0.0864452731 Z" id="Path" fill="#EFC75E"></path>
                <path d="M75.3054313,40.2883615 C75.3054313,45.6773272 73.9257042,50.9981902 71.7661884,55.6639972 C71.1045495,57.0941547 71.6009662,58.7982622 72.9519998,59.5802894 L73.0037607,59.609916 C74.5055759,60.4787068 76.399911,59.840388 77.1375033,58.2495927 C79.6629084,52.7996423 81.0810811,46.5844018 81.0810811,40.2883615 C81.0810811,33.3520785 79.4074798,26.8215262 76.4653623,21.0810811 L71.3513514,23.8330858 C73.8709427,28.7511037 75.3054313,34.3468786 75.3054313,40.2883615 Z" id="Path" fill="#E2574C"></path>
                <path d="M8.04569632,59.6185118 L8.09727697,59.590038 C9.44454107,58.826631 9.93829496,57.1599489 9.27802529,55.7612672 C6.94418784,50.8152827 5.55973335,44.8076853 5.77782978,38.9132138 C5.97779824,33.5024129 7.39103324,28.3919342 9.72972973,23.8490086 L4.60474381,21.0810811 C2.14569248,25.8752692 0.57547289,31.2171942 0.132365221,36.8702151 C-0.459877801,44.4234808 0.95821625,52.0082985 3.92634616,58.2888985 C4.66024907,59.843032 6.54817555,60.4684947 8.04569632,59.6185118 Z" id="Path" fill="#3DB39E"></path>
                <path d="M40.5405405,0 L40.5405405,5.78974163 C54.2608797,5.79068176 66.1303125,13.6694085 71.8076225,25.1351351 L77.027027,22.5820982 C70.3991188,9.20149993 56.5530541,0.0030084394 40.5405405,0 L40.5405405,0 Z" id="Path" fill="#F4B459"></path>
                <g id="Group-19" transform="translate(28.378378, 13.783784)">
                    <polygon id="Path" fill="#324D5B" points="37.5298335 -4.26325641e-14 38.9189189 1.39007004 4.16934773 38.9189189 6.03961325e-13 34.7494693"></polygon>
                    <path d="M8.83783784,25.2162162 C6.1505701,25.2162162 3.97297297,27.3938133 3.97297297,30.0810811 C3.97297297,32.7683488 6.1505701,34.9459459 8.83783784,34.9459459 C11.5251056,34.9459459 13.7027027,32.7683488 13.7027027,30.0810811 C13.7027027,27.3936233 11.5251056,25.2162162 8.83783784,25.2162162 Z" id="Path" fill="#1E2D36"></path>
                </g>
            </g>
        </g>
    </g>
</svg>